<svg xmlns="http://www.w3.org/2000/svg" xmlns:xlink="http://www.w3.org/1999/xlink" version="1.1" id="Layer_1" x="0px" y="0px" enable-background="new 0 0 260 280" xml:space="preserve" viewBox="54.57 47.4 152.97 146.6">
    <path fill="none" opacity="1.000000" stroke="#000000" stroke-linecap="round" stroke-linejoin="round" stroke-width="4.000000" d=" M199.000000,68.500000   C200.652832,66.611351 203.173523,68.194107 205.241867,66.963715   C206.476151,61.802383 203.535858,57.064053 203.359055,52.004925   C203.293503,50.128872 201.295700,49.205578 198.993439,49.433842   C196.187698,49.712025 193.333328,49.500000 190.500000,49.500000   C149.000000,49.500000 107.499947,49.530270 66.000084,49.455341   C61.627602,49.447449 58.323757,49.253960 58.225132,55.495655   C58.166367,59.214622 56.271511,63.006428 56.611622,67.767609   C59.694836,66.715981 62.228561,67.705917 65.000404,67.700378   C86.665176,67.657013 108.337692,66.923500 130.002594,67.945145   C134.484756,68.156509 138.999557,67.538437 143.500076,67.522903   C160.166550,67.465378 176.833344,67.492378 193.499985,67.511749   C195.174469,67.513695 196.896790,67.198730 198.500000,68.000000  "></path> <path fill="none" opacity="1.000000" stroke="#000000" stroke-linecap="round" stroke-linejoin="round" stroke-width="5.000000" d=" M63.000000,69.000000   C63.000000,107.333336 62.998543,145.666672 63.001297,184.000000   C63.001808,191.119965 63.389664,191.500000 70.500000,191.500000   C88.666664,191.500000 106.833336,191.500000 125.000000,191.500000   C147.666672,191.500000 170.333328,191.501648 193.000000,191.498901   C198.968399,191.498169 198.994492,191.491928 198.995773,185.500000   C199.004028,146.666672 199.000000,107.833336 199.000000,69.000000  "></path> <path fill="none" opacity="1.000000" stroke="#000000" stroke-linecap="round" stroke-linejoin="round" stroke-width="5.000000" d=" M121.000000,80.500000   C110.849266,79.361504 100.665359,80.267639 90.499527,80.019386   C85.835640,79.905502 81.155434,80.198570 76.503654,79.935432   C72.959579,79.734947 71.885277,80.969353 71.927979,84.500870   C72.101273,98.832108 72.000000,113.166664 72.000000,128.000000   C88.324829,128.000000 104.659866,128.000000 121.506660,128.000000   C121.316856,112.333336 123.025436,96.666664 121.000000,81.000000  "></path> <path fill="none" opacity="1.000000" stroke="#000000" stroke-linecap="round" stroke-linejoin="round" stroke-width="4.000000" d=" M174.000000,69.000000   C175.058701,70.577461 174.461731,72.343201 174.465164,74.000069   C174.515778,98.333305 174.465683,122.666748 174.522903,146.999939   C174.538193,153.500305 174.891495,159.999191 174.982727,166.500244   C175.064713,172.341812 170.871597,175.645432 165.000000,174.500000   C159.107910,173.350555 156.479034,170.554993 157.650665,164.529297   C159.278915,156.155258 158.014999,147.828583 158.459442,139.497833   C158.689972,135.176804 158.500000,130.833328 158.500000,126.500000  "></path> <path fill="none" opacity="1.000000" stroke="#000000" stroke-linecap="round" stroke-linejoin="round" stroke-width="5.000000" d=" M131.000000,69.000000   C131.000000,109.333336 131.000000,149.666672 131.000000,190.000000  "></path> <path fill="none" opacity="1.000000" stroke="#000000" stroke-linecap="round" stroke-linejoin="round" stroke-width="5.000000" d=" M90.500000,95.500000   C90.333336,95.500000 90.162964,95.477081 90.000526,95.503281   C80.499939,97.035797 80.500000,97.036186 80.500000,107.000000   C80.500000,109.166664 80.741821,111.366539 80.449806,113.493111   C79.836235,117.961327 82.249916,119.030609 86.000061,119.011169   C93.333199,118.973137 100.666748,118.979225 107.999962,119.008659   C111.731300,119.023636 113.799988,117.656319 113.551422,113.496925   C113.313232,109.511162 113.313232,105.488838 113.551422,101.503075   C113.799988,97.343681 111.713654,96.192543 108.004066,95.940201   C102.335045,95.554573 96.633888,96.781258 91.000000,95.500000  "></path> <path fill="none" opacity="1.000000" stroke="#000000" stroke-linecap="round" stroke-linejoin="round" stroke-width="4.000000" d=" M145.000000,100.500000   C145.891968,120.160522 145.403336,139.833008 145.446854,159.500122   C145.452454,162.035858 146.673828,164.379440 146.070892,167.016205   C145.609604,169.033493 146.780533,171.968277 144.443512,172.850327   C141.668823,173.897598 138.526901,175.211899 135.555862,174.314957   C134.377365,173.959183 133.231720,173.605652 132.000000,173.500000  "></path> <path fill="none" opacity="1.000000" stroke="#000000" stroke-linecap="round" stroke-linejoin="round" stroke-width="4.000000" d=" M96.000000,159.500000   C97.880539,166.594696 95.527382,173.886322 96.904236,181.500000   C102.656860,181.500000 108.328789,181.462677 113.999832,181.517334   C116.461205,181.541061 117.536293,180.461060 117.517471,177.999863   C117.466499,171.333588 117.600212,164.664612 117.463570,158.000748   C117.377396,153.798386 114.335289,150.103241 111.024956,150.343643   C105.538818,150.742050 99.824516,149.069641 94.500000,151.500000  "></path> <path fill="none" opacity="1.000000" stroke="#000000" stroke-linecap="round" stroke-linejoin="round" stroke-width="4.000000" d=" M111.500000,150.000000   C111.436867,139.255371 112.745193,140.554031 101.999985,140.503967   C97.000092,140.480682 91.993454,140.655899 87.002258,140.446213   C83.565887,140.301865 82.157402,141.567886 82.472755,145.002502   C82.704079,147.521866 82.045639,150.149475 83.500000,152.500000  "></path> <path fill="snone" opacity="1.000000" stroke="#000000" stroke-linecap="round" stroke-linejoin="round" stroke-width="4.000000" d=" M91.500000,108.000000   C91.444489,112.075706 94.547707,113.600540 97.474289,113.271393   C100.290604,112.954636 103.038277,111.122673 102.588791,106.990341   C102.192001,103.342484 100.037231,101.650101 96.999069,101.627991   C93.566566,101.603004 91.142181,103.491447 91.500000,107.500000  "></path>    <path fill="none" opacity="1.000000" stroke="#000000" stroke-linecap="round" stroke-linejoin="round" stroke-width="4.000000" d=" M103.500000,95.000000   C103.024940,89.698547 102.719696,89.623611 96.501663,89.442749   C92.425705,89.324188 90.036636,90.479362 90.500000,95.000000  "></path> <path fill="none" opacity="1.000000" stroke="#000000" stroke-linecap="round" stroke-linejoin="round" stroke-width="5.000000" d=" M116.000000,166.000000   C110.000000,166.000000 104.000000,166.000000 98.000000,166.000000  "></path> <path fill="none" opacity="1.000000" stroke="#000000" stroke-linecap="round" stroke-linejoin="round" stroke-width="4.000000" d=" M83.500000,153.000000   C81.865448,159.072739 82.139847,159.469833 88.000000,159.499298   C88.999977,159.504318 90.002235,159.542969 90.999542,159.491150   C93.149307,159.379440 95.898972,160.317596 96.464401,156.993942   C96.911423,154.366257 93.868240,150.867462 90.998550,150.511703   C88.405609,150.190292 86.207016,151.391220 84.000000,152.500000  "></path>    <path fill="none" opacity="1.000000" stroke="#000000" stroke-linecap="round" stroke-linejoin="round" stroke-width="4.000000" d=" M157.000000,164.500000   C153.666672,162.912994 150.333328,162.912994 147.000000,164.500000  "></path>
</svg>