<svg xmlns:inkscape="http://www.inkscape.org/namespaces/inkscape" xmlns:sodipodi="http://sodipodi.sourceforge.net/DTD/sodipodi-0.dtd" xmlns="http://www.w3.org/2000/svg" xmlns:svg="http://www.w3.org/2000/svg" xmlns:rdf="http://www.w3.org/1999/02/22-rdf-syntax-ns#" xmlns:cc="http://creativecommons.org/ns#" xmlns:dc="http://purl.org/dc/elements/1.1/" viewBox="0 0 10.583333 13.2291675" version="1.1" x="0px" y="0px"><g transform="translate(0,0.5291667)"><path style="color:#000000;paint-order:fill markers stroke;" d="m 3.8834832,1.3482377 c -0.1893811,0 -0.3616987,0.101574 -0.4609539,0.219108 -0.09925,0.117534 -0.1496957,0.244467 -0.1932697,0.359152 L 3.1021355,2.2608437 H 1.53789 c -0.407676,0 -0.74414058,0.336463 -0.74414058,0.744141 v 4.4276365 c 0,0.407675 0.33646348,0.744141 0.74414058,0.744141 h 7.5075519 c 0.407677,0 0.744142,-0.336466 0.744142,-0.744141 V 3.0049847 c 0,-0.407678 -0.336466,-0.744141 -0.744142,-0.744141 h -1.564246 l -0.127123,-0.334346 c -0.04358,-0.114681 -0.09608,-0.241618 -0.195338,-0.359152 -0.09925,-0.117534 -0.269504,-0.219108 -0.4588863,-0.219108 z m -0.020153,0.529684 c 0.00481,-3.44e-4 0.011144,0 0.020153,0 h 2.8163654 c 0.03604,0 0.026797,-0.0021 0.054777,0.03101 0.02798,0.03313 0.068921,0.109111 0.1054206,0.205156 l 0.191202,0.503845 a 0.26460995,0.26460995 0 0 0 0.246497,0.172083 h 1.747697 c 0.123671,0 0.214974,0.0913 0.214974,0.214974 v 4.4276365 c 0,0.123672 -0.0913,0.214455 -0.214974,0.214455 H 1.53789 c -0.123672,0 -0.2149739,-0.09078 -0.2149739,-0.214455 V 3.0049897 c 0,-0.123672 0.091301,-0.214974 0.2149739,-0.214974 h 1.7461466 a 0.26460995,0.26460995 0 0 0 0.2480468,-0.172083 l 0.1912028,-0.503845 c 0.03649,-0.09604 0.075377,-0.172024 0.1033528,-0.205156 0.020984,-0.02485 0.022251,-0.02998 0.036691,-0.03101 z m 1.4283367,1.257804 c -1.147599,0 -2.0841105,0.936511 -2.0841108,2.084112 0,1.147595 0.9365118,2.0815235 2.0841108,2.0815235 1.1475979,0 2.0841103,-0.9339285 2.0841103,-2.0815235 0,-1.147601 -0.9365124,-2.084112 -2.0841103,-2.084112 z m 3.2085893,0.167432 a 0.30257625,0.30257625 0 0 0 -0.301273,0.303857 0.30257625,0.30257625 0 0 0 0.301273,0.30179 0.30257625,0.30257625 0 0 0 0.303858,-0.30179 0.30257625,0.30257625 0 0 0 -0.303858,-0.303857 z m -3.2085893,0.361735 c 0.8616148,0 1.5549433,0.693328 1.5549433,1.554945 0,0.861612 -0.6933285,1.552358 -1.5549433,1.552358 -0.8616162,0 -1.5544271,-0.690746 -1.5544271,-1.552358 0,-0.861617 0.6928109,-1.554945 1.5544271,-1.554945 z" fill="#000000" fill-rule="evenodd" stroke-width="1" stroke-linecap="round" stroke-linejoin="round"/></g><text x="0" y="25.583334" fill="#000000" font-size="5px" font-weight="bold" font-family="'Helvetica Neue', Helvetica, Arial-Unicode, Arial, Sans-serif">Created by Alzam</text><text x="0" y="30.583334" fill="#000000" font-size="5px" font-weight="bold" font-family="'Helvetica Neue', Helvetica, Arial-Unicode, Arial, Sans-serif">from the Noun Project</text></svg>