<svg xmlns="http://www.w3.org/2000/svg" version="1.1" viewBox="-5.0 -10.0 110.0 135.0">
 <path d="m44.18 12.906v-8.1758c0-0.69141 0.5625-1.25 1.25-1.25h9.1367c0.69141 0 1.25 0.5625 1.25 1.25v8.1758h22.043c0.38281 0 0.71875 0.17188 0.94922 0.4375l6.7188 6.7891c0.48438 0.48438 0.48438 1.2734 0 1.7578l-6.7812 6.8555c-0.24219 0.24219-0.5625 0.36719-0.88281 0.36719l-22.043 0.003907v5.9258h22.043c0.38281 0 0.71875 0.17188 0.94922 0.4375l6.7188 6.7852c0.48438 0.48438 0.48438 1.2734 0 1.7578l-6.7812 6.8555c-0.24219 0.24219-0.5625 0.36719-0.88281 0.36719l-22.043 0.003906v5.9258h5.7305c0.69141 0 1.25 0.5625 1.25 1.25v13.711c0 0.69141-0.5625 1.25-1.25 1.25h-5.7305v16.41c5.8672 0.57422 11.672 2.0117 17.223 4.3203 0.63672 0.26562 0.9375 0.99219 0.67188 1.6289-0.26562 0.63672-0.99219 0.9375-1.6289 0.67188-5.6484-2.3477-11.586-3.7617-17.582-4.2305l-0.0625-0.007812c-1.4805-0.11328-2.957-0.17188-4.4414-0.17188-1.4805 0-2.9648 0.058594-4.4414 0.17188l-0.058594 0.003906c-5.9922 0.47266-11.934 1.8828-17.582 4.2344-0.63672 0.26562-1.3672-0.039063-1.6289-0.67188-0.26562-0.63672 0.039062-1.3672 0.67188-1.6289 5.5469-2.3086 11.355-3.7461 17.223-4.3203v-16.41h-4.7852c-0.69141 0-1.25-0.5625-1.25-1.25 0-0.69141 0.5625-1.25 1.25-1.25h9.3555v-11.211h-26.098l-5.5469 5.6055 5.5469 5.6055h8.1719c0.69141 0 1.25 0.5625 1.25 1.25 0 0.69141-0.5625 1.25-1.25 1.25h-8.6875c-0.32031-0.003907-0.64062-0.125-0.88281-0.37109l-6.7812-6.8555c-0.48438-0.48438-0.48438-1.2734 0-1.7578l6.7188-6.7891c0.22656-0.26562 0.57031-0.4375 0.94922-0.4375h22.043v-5.9258h-5.7305c-0.69141 0-1.25-0.5625-1.25-1.25v-13.711c0-0.69141 0.5625-1.25 1.25-1.25h5.7305v-5.9258h-5.7305c-0.69141 0-1.25-0.5625-1.25-1.25v-13.711c0-0.69141 0.5625-1.25 1.25-1.25h5.7305zm2.5-6.9258v6.9258h6.6406v-6.9258zm6.6406 29.062v-5.9258h-6.6406v5.9258zm0 22.133v-5.9258h-6.6406v5.9258zm0 32.426v-16.223h-6.6406v16.223c1.1055-0.058593 2.2148-0.09375 3.3203-0.09375s2.2148 0.03125 3.3164 0.09375zm24.027-74.199h-26.098v11.211h26.098l5.5469-5.6055zm-28.598 0h-9.0508v11.211h9.0508zm28.598 22.133h-26.098v11.211h26.098l5.5469-5.6055zm-28.598 0h-9.0508v11.211h9.0508zm-13.918 35.844c-0.69141 0-1.25-0.5625-1.25-1.25 0-0.69141 0.5625-1.25 1.25-1.25h0.55859c0.69141 0 1.25 0.5625 1.25 1.25 0 0.69141-0.5625 1.25-1.25 1.25zm16.418-2.5h9.0508v-11.211h-9.0508z"/>
<text x="0.0" y="117.5" font-size="5.0" font-weight="bold" font-family="Arbeit Regular, Helvetica, Arial-Unicode, Arial, Sans-serif" fill="#000000">Created by Lusi Astianah</text><text x="0.0" y="122.5" font-size="5.0" font-weight="bold" font-family="Arbeit Regular, Helvetica, Arial-Unicode, Arial, Sans-serif" fill="#000000">from Noun Project</text></svg>