<svg xmlns="http://www.w3.org/2000/svg" version="1.1" viewBox="-5.0 -10.0 110.0 135.0">
 <path d="m40.246 91.023c1.7578 1.7461 4.1406 2.7266 6.6289 2.7266s4.8711-0.98047 6.6289-2.7266c2.1484-2.1406 4.6133-4.5898 6.25-6.2148 1.7578-1.7461 2.7461-4.1172 2.7461-6.5898v-25.91c0-0.82422 0.32812-1.6133 0.91406-2.1953l21.34-21.195c1.7578-1.7461 2.7461-4.1172 2.7461-6.5898v-6.7578c0-2.4727-0.98828-4.8438-2.7461-6.5938-1.7578-1.7461-4.1406-2.7266-6.6289-2.7266h-56.25c-2.4883 0-4.8711 0.98047-6.6289 2.7266-1.7578 1.75-2.7461 4.1211-2.7461 6.5938v6.7422c0 2.4727 0.98828 4.8398 2.7461 6.5859l21.34 21.211c0.58594 0.58594 0.91406 1.3711 0.91406 2.1953v32.125c0 2.4727 0.98828 4.8438 2.7461 6.5938zm4.418-4.3945c-0.58594-0.58203-0.91406-1.3711-0.91406-2.1992v-32.125c0-2.4688-0.98828-4.8398-2.7461-6.5859l-21.34-21.211c-0.58594-0.58203-0.91406-1.3711-0.91406-2.1953v-6.7422c0-0.82812 0.32812-1.6172 0.91406-2.1992 0.58594-0.58203 1.3828-0.91016 2.2109-0.91016h56.25c0.82812 0 1.625 0.32812 2.2109 0.91016 0.58594 0.58203 0.91406 1.3711 0.91406 2.1992v6.7578c0 0.82422-0.32812 1.6172-0.91406 2.1953l-21.34 21.191c-1.7578 1.75-2.7461 4.1211-2.7461 6.5938v25.91c0 0.82422-0.32812 1.6172-0.91406 2.1953l-6.25 6.2148c-0.58594 0.58203-1.3828 0.91016-2.2109 0.91016s-1.625-0.32812-2.2109-0.91016zm24.086-2.2539h6.25c1.7266 0 3.125-1.3984 3.125-3.125s-1.3984-3.125-3.125-3.125h-6.25c-1.7266 0-3.125 1.3984-3.125 3.125s1.3984 3.125 3.125 3.125zm0-9.375h12.5c1.7266 0 3.125-1.3984 3.125-3.125s-1.3984-3.125-3.125-3.125h-12.5c-1.7266 0-3.125 1.3984-3.125 3.125s1.3984 3.125 3.125 3.125zm0-9.375h18.75c1.7266 0 3.125-1.3984 3.125-3.125s-1.3984-3.125-3.125-3.125h-18.75c-1.7266 0-3.125 1.3984-3.125 3.125s1.3984 3.125 3.125 3.125z" fill-rule="evenodd"/>
<text x="0.0" y="117.5" font-size="5.0" font-weight="bold" font-family="Arbeit Regular, Helvetica, Arial-Unicode, Arial, Sans-serif" fill="#000000">Created by Mila Karmila</text><text x="0.0" y="122.5" font-size="5.0" font-weight="bold" font-family="Arbeit Regular, Helvetica, Arial-Unicode, Arial, Sans-serif" fill="#000000">from Noun Project</text></svg>