<svg xmlns="http://www.w3.org/2000/svg" version="1.1" viewBox="-5.0 -10.0 110.0 135.0">
 <path d="m10 20c0-5.5234 4.4766-10 10-10h60c5.5234 0 10 4.4766 10 10v60c0 5.5234-4.4766 10-10 10h-60c-5.5234 0-10-4.4766-10-10zm10-6c-3.3125 0-6 2.6875-6 6v60c0 3.3125 2.6875 6 6 6h60c3.3125 0 6-2.6875 6-6v-60c0-3.3125-2.6875-6-6-6zm-2 10c0-3.3125 2.6875-6 6-6h52c3.3125 0 6 2.6875 6 6v52c0 3.3125-2.6875 6-6 6h-52c-3.3125 0-6-2.6875-6-6zm6-2c-1.1055 0-2 0.89453-2 2v32.672l1.0859-1.0859c5.5469-5.5469 14.27-5.9883 20.324-1.3242l14.676-14.676c5.4062-5.4062 13.688-6.1758 19.914-2.3125v-13.273c0-1.1055-0.89453-2-2-2zm54 20.328c-4.75-4.6562-12.371-4.6289-17.086 0.085937l-14.586 14.586 21 21h8.6719c1.1055 0 2-0.89453 2-2zm-16.328 35.672-19.586-19.586c-4.4648-4.4648-11.707-4.4648-16.172 0l-3.5 3.5c-0.125 0.125-0.26562 0.23438-0.41406 0.32031v13.766c0 1.1055 0.89453 2 2 2zm-35.672-43.5c0-4.6953 3.8047-8.5 8.5-8.5s8.5 3.8047 8.5 8.5-3.8047 8.5-8.5 8.5-8.5-3.8047-8.5-8.5zm8.5-4.5c-2.4844 0-4.5 2.0156-4.5 4.5s2.0156 4.5 4.5 4.5 4.5-2.0156 4.5-4.5-2.0156-4.5-4.5-4.5z" fill-rule="evenodd"/>
<text x="0.0" y="117.5" font-size="5.0" font-weight="bold" font-family="Arbeit Regular, Helvetica, Arial-Unicode, Arial, Sans-serif" fill="#000000">Created by HideMaru</text><text x="0.0" y="122.5" font-size="5.0" font-weight="bold" font-family="Arbeit Regular, Helvetica, Arial-Unicode, Arial, Sans-serif" fill="#000000">from Noun Project</text></svg>