<svg version="1.1" id="Layer_1" xmlns="http://www.w3.org/2000/svg" xmlns:xlink="http://www.w3.org/1999/xlink" x="0px" y="0px"
	 width="100%" viewBox="0 0 1400 1400" enable-background="new 0 0 1400 1400" xml:space="preserve">
<path fill="none" opacity="1.000000" stroke="#000000" stroke-linecap="round" stroke-linejoin="round" stroke-width="18.000000"
	d="
M385.500000,586.500000 
	C383.709900,591.350220 383.454102,596.367554 383.458130,601.500061 
	C383.518646,678.333313 383.492157,755.166687 383.508270,832.000000 
	C383.510773,843.887512 385.236359,845.239014 397.000977,845.295715 
	C477.665771,845.684814 558.333740,845.622253 638.999451,845.347412 
	C649.244446,845.312561 652.327637,843.159973 651.571960,831.495361 
	C651.293091,827.190918 651.976868,822.833374 651.978638,818.500000 
	C652.008362,744.333313 652.032898,670.166687 651.965759,596.000061 
	C651.955261,584.413696 649.056396,583.109070 639.999817,583.091614 
	C558.666809,582.934692 477.333344,582.991638 396.000031,583.041931 
	C393.666473,583.043396 391.012024,583.080811 389.077728,584.141785 
	C386.390289,585.615601 383.748077,585.434204 381.000000,585.500000 
"/>
<path fill="none" opacity="1.000000" stroke="#000000" stroke-linecap="round" stroke-linejoin="round" stroke-width="18.000000"
	d="
M701.500000,519.000000 
	C705.790588,516.328918 710.447205,515.405823 715.500427,515.449219 
	C731.499268,515.586609 747.533691,514.884460 763.485901,515.757507 
	C771.566528,516.199707 779.478455,515.872070 787.503662,515.760010 
	C827.995728,515.194214 868.504089,515.803406 908.996643,515.254028 
	C917.491333,515.138794 925.644409,516.872681 934.000061,516.997925 
	C934.999817,517.012939 936.126587,517.305847 936.980347,516.952576 
	C945.168457,513.564331 953.664001,515.613953 962.000366,515.567383 
	C992.499451,515.397217 1023.000000,515.487244 1053.500000,515.534485 
	C1055.156738,515.537048 1056.833862,515.116150 1058.515747,515.968994 
	C1064.897461,519.204895 1071.146729,518.303772 1077.544800,515.606323 
	C1080.276733,514.454468 1083.430176,514.945496 1086.512573,515.417786 
	C1097.354980,517.079102 1104.488892,509.540863 1103.025879,498.496582 
	C1101.661499,488.197113 1098.941284,478.178558 1096.968262,468.006134 
	C1094.603394,455.813293 1091.944580,443.677704 1089.515869,431.496826 
	C1087.157837,419.669891 1079.367798,417.191650 1069.509521,418.103516 
	C1067.504517,418.289001 1065.501099,418.480774 1063.500000,418.480927 
	C822.666687,418.501129 581.833313,418.501251 341.000000,418.485687 
	C337.997131,418.485504 335.011322,418.416534 331.991516,418.075012 
	C318.132355,416.507599 313.062408,424.938904 311.145721,436.025208 
	C309.956421,442.904083 308.533142,449.698608 307.083496,456.517761 
	C303.977814,471.126526 301.139313,485.799805 298.594177,500.516296 
	C297.557159,506.512512 302.314056,514.390930 309.492004,515.082947 
	C313.674866,515.486084 317.837585,515.579102 321.998138,515.442932 
	C325.799042,515.318542 328.998688,517.172668 332.502441,517.989563 
	C334.841888,518.534973 334.349854,520.856873 334.362610,522.001526 
	C334.559448,539.666016 334.500000,557.333313 334.500000,575.000000 
	C334.500000,769.166687 334.498932,963.333313 334.506378,1157.500000 
	C334.506561,1162.049927 333.852875,1166.708252 336.014343,1170.992798 
	C339.621643,1178.143433 345.193756,1182.038452 353.500031,1182.034546 
	C464.166656,1181.982788 574.833313,1181.977539 685.499939,1182.063599 
	C691.291504,1182.068115 696.500183,1178.002808 701.444824,1178.523682 
	C706.456909,1179.051758 711.364014,1182.066406 717.000061,1182.062012 
	C824.833313,1181.978271 932.666687,1182.003052 1040.500000,1181.991577 
	C1046.443115,1181.990967 1052.412598,1183.139282 1058.053467,1179.584839 
	C1064.322388,1175.634644 1067.512329,1170.362793 1067.509277,1163.000000 
	C1067.490845,1118.166626 1067.500000,1073.333374 1067.500000,1028.500000 
	C1067.500000,858.833313 1067.500000,689.166687 1067.500000,519.500000 
"/>
<path fill="none" opacity="1.000000" stroke="#000000" stroke-linecap="round" stroke-linejoin="round" stroke-width="19.000000"
	d="
M334.500000,519.000000 
	C338.790558,516.328918 343.449371,515.450378 348.500031,515.453125 
	C461.500000,515.514221 574.500000,515.511658 687.500000,515.448364 
	C691.205139,515.446289 694.554260,516.475525 698.013611,517.451721 
	C700.738220,518.220581 701.856812,520.233032 701.375732,522.473328 
	C700.720337,525.525513 701.041138,528.508667 701.040405,531.500000 
	C700.995300,711.833313 701.013184,892.166687 700.934937,1072.500000 
	C700.932617,1077.803467 704.135376,1082.644897 703.655334,1087.465698 
	C703.162842,1092.411011 700.928467,1097.227295 700.951416,1102.500244 
	C701.060242,1127.499756 701.000000,1152.500000 701.000000,1177.500000 
"/>
<path fill="none" opacity="1.000000" stroke="#000000" stroke-linecap="round" stroke-linejoin="round" stroke-width="18.000000"
	d="
M554.000000,665.000000 
	C558.824341,667.682800 564.060425,668.478027 569.499878,668.517029 
	C576.001587,668.563721 582.494873,668.441956 589.005127,668.931885 
	C600.037231,669.762085 605.842102,678.758972 605.948120,686.000732 
	C606.260254,707.331970 606.587280,728.669312 606.364868,749.998596 
	C606.284973,757.657654 605.710693,765.356934 606.108093,772.994385 
	C606.681335,784.012756 597.636536,792.138550 586.999573,792.074158 
	C553.667480,791.872498 520.333313,792.000000 487.000000,792.000000 
	C474.000000,792.000000 460.993835,791.753662 448.001953,792.078308 
	C437.691315,792.335938 429.084808,783.465027 429.291901,773.495667 
	C429.883698,745.007996 429.941132,716.489685 429.274933,688.005249 
	C429.021484,677.170105 438.132935,668.865906 449.001526,668.552856 
	C453.992584,668.409058 459.000732,668.813782 463.999786,669.005249 
	C469.565735,669.218384 474.721985,667.734497 480.075745,666.278503 
	C485.271667,664.865540 490.175171,669.651123 496.011475,669.127869 
	C511.135071,667.772034 526.333374,668.666931 541.500183,668.519897 
	C545.864624,668.477600 549.572815,666.416382 553.500000,665.000000 
"/>
<path fill="none" opacity="1.000000" stroke="#000000" stroke-linecap="round" stroke-linejoin="round" stroke-width="21.000000"
	d="
M775.500000,518.500000 
	C775.338623,545.339478 776.481934,572.160095 776.690735,598.998535 
	C776.842407,618.492493 777.408508,637.994751 777.546082,657.499695 
	C777.616760,667.501526 778.395935,677.499146 778.431885,687.500244 
	C778.464294,696.500671 777.054504,705.463806 777.482910,714.500793 
	C778.548767,736.988281 777.894592,759.519836 778.714111,781.992188 
	C779.468262,802.672546 778.869934,823.344849 779.599609,843.996460 
	C780.318176,864.332153 780.130981,884.670471 780.636230,904.996643 
	C780.967834,918.336792 780.476501,931.679504 781.055298,944.997620 
	C782.337036,974.492615 781.500183,1004.007874 782.246765,1033.493774 
	C782.486938,1042.981567 782.730652,1052.498169 782.969421,1062.000732 
	C783.015381,1063.828857 782.745178,1065.677734 782.487061,1067.498169 
	C780.999817,1077.988159 775.237915,1083.997925 764.513733,1085.592407 
	C756.444275,1086.791992 748.546265,1089.125977 740.484253,1090.400146 
	C734.821777,1091.295166 729.076721,1090.001953 723.521851,1088.890869 
	C717.372131,1087.660645 711.242493,1086.965332 705.000000,1087.000000 
"/>
<path fill="none" opacity="1.000000" stroke="#000000" stroke-linecap="round" stroke-linejoin="round" stroke-width="18.000000"
	d="
M504.500000,968.000000 
	C505.923859,974.109253 508.409485,979.861877 511.089050,985.457336 
	C514.448547,992.472717 514.962830,999.403076 511.911682,1006.461792 
	C511.152771,1008.217468 511.071655,1009.296082 511.915070,1011.041077 
	C513.867920,1015.081360 514.659485,1019.456055 514.520935,1024.000610 
	C514.319031,1030.620483 513.872375,1037.377808 517.126648,1043.431885 
	C518.081116,1045.207764 517.383484,1046.500732 516.890015,1047.442383 
	C514.710266,1051.601196 514.454224,1055.966431 514.471924,1060.500122 
	C514.540771,1078.166504 514.500000,1095.833374 514.500000,1113.500000 
	C514.500000,1114.000000 514.457581,1114.504150 514.506165,1114.999390 
	C515.513733,1125.262207 516.722412,1127.105713 527.003418,1127.364868 
	C545.824768,1127.839478 564.666687,1127.500000 583.500000,1127.500000 
	C593.000000,1127.500000 602.500000,1127.500000 612.000000,1127.500000 
	C613.333313,1127.500000 614.700439,1127.693604 615.994385,1127.467896 
	C623.316895,1126.190430 626.377014,1122.528076 626.450378,1113.999634 
	C626.610840,1095.334351 626.532593,1076.666504 626.455994,1058.000122 
	C626.447144,1055.832275 626.453552,1053.275635 625.381348,1051.574829 
	C622.408569,1046.859009 623.210449,1042.539551 625.450073,1037.975464 
	C626.107910,1036.634766 626.471191,1034.996094 626.452148,1033.500610 
	C626.288940,1020.667297 627.213928,1007.805359 625.950989,995.004822 
	C624.777527,983.110779 618.467834,974.279297 608.480713,968.030823 
	C603.927734,965.182373 599.166687,962.666687 594.500000,960.000000 
"/>
<path fill="none" opacity="1.000000" stroke="#000000" stroke-linecap="round" stroke-linejoin="round" stroke-width="19.000000"
	d="
M510.500000,1008.500000 
	C491.174530,1009.578552 471.832703,1008.886047 452.499847,1008.920166 
	C445.093689,1008.933167 441.975403,1005.331787 441.517426,997.498962 
	C441.061401,989.699585 443.021545,982.294739 445.508850,975.002991 
	C446.007233,973.542053 447.089996,972.632019 448.493896,971.986694 
	C454.938354,969.024292 461.681793,966.798828 468.157959,963.846497 
	C473.017334,961.631226 479.306000,962.109009 484.996002,962.551270 
	C487.519623,962.747375 490.073669,963.270203 492.486023,964.043579 
	C499.420258,966.266785 506.216125,968.579834 513.049866,963.567993 
	C514.806763,962.279602 517.260315,962.477051 519.500061,962.481445 
	C536.666687,962.515259 553.837158,962.289307 570.998108,962.602478 
	C577.980774,962.729858 584.828247,963.382507 591.543884,960.606140 
	C593.536499,959.782349 593.917236,958.968140 594.068787,957.005310 
	C594.931091,945.840149 594.462219,934.665649 594.445618,923.500061 
	C594.431152,913.775574 591.595886,910.166809 580.999390,910.102905 
	C539.334229,909.851624 497.666595,909.965332 456.000031,910.020508 
	C443.014954,910.037720 442.476471,912.231445 441.171814,925.017517 
	C440.399323,932.588379 441.958893,940.384521 441.336609,947.986633 
	C440.611755,956.841614 441.681519,964.976562 446.500000,972.500000 
"/>
<path fill="none" opacity="1.000000" stroke="#000000" stroke-linecap="round" stroke-linejoin="round" stroke-width="17.000000"
	d="
M517.000000,699.000000 
	C504.567902,699.701904 495.079407,705.659912 489.659180,716.579041 
	C483.829681,728.322510 484.857178,740.403870 493.616760,750.397644 
	C506.679871,765.301331 527.704895,767.625122 542.545532,749.036316 
	C550.600342,738.947205 550.645935,727.878906 545.793457,717.092957 
	C540.631592,705.619385 530.913391,699.431030 518.000000,699.000000 
"/>
<path fill="none" opacity="1.000000" stroke="#000000" stroke-linecap="round" stroke-linejoin="round" stroke-width="18.000000"
	d="
M553.500000,664.500000 
	C552.308167,657.598999 553.677246,650.289185 549.088318,643.936218 
	C544.757385,637.940308 540.002441,633.971069 531.994080,634.385010 
	C522.519348,634.874634 513.000000,634.500000 503.500000,634.500000 
	C493.144531,634.500000 485.084045,640.834595 483.069031,651.013672 
	C482.161255,655.599609 482.000031,660.333313 481.500031,665.000000 
"/>
<path fill="none" opacity="1.000000" stroke="#000000" stroke-linecap="round" stroke-linejoin="round" stroke-width="19.000000"
	d="
M622.000000,1045.000000 
	C587.500000,1045.000000 553.000000,1045.000000 518.500000,1045.000000 
"/>
<path fill="none" opacity="1.000000" stroke="#000000" stroke-linecap="round" stroke-linejoin="round" stroke-width="3.000000"
	d="
M442.000000,911.000000 
	C438.879913,909.948364 435.662048,910.754578 432.500000,910.500000 
"/>
</svg>