<svg xmlns="http://www.w3.org/2000/svg" version="1.1" viewBox="-5.0 -10.0 110.0 135.0">
 <path d="m87.391 9h-31.641c-3.5039 0-6.3438 2.8398-6.3438 6.3438v6.8438h-15.859c-2.5898 0-4.6875 2.0977-4.6875 4.6875v7.5h-16.359c-3.4531 0-6.25 2.7969-6.25 6.25v44.125c0 1.6562 0.66016 3.2461 1.832 4.418s2.7617 1.832 4.418 1.832h31.844c1.6562 0 3.2461-0.66016 4.418-1.832s1.832-2.7617 1.832-4.418v-5.8438h17.781c2.5898 0 4.6875-2.0977 4.6875-4.6875v-8.5938h14.266c3.4961 0.035156 6.3633-2.7578 6.4219-6.25v-44.031c-0.007812-3.5078-2.8516-6.3438-6.3594-6.3438zm-43.047 78.875h-31.844c-1.7266 0-3.125-1.3984-3.125-3.125v-44.125c0-1.7266 1.3984-3.125 3.125-3.125h31.844c0.82812 0 1.625 0.32812 2.2109 0.91406 0.58594 0.58594 0.91406 1.3828 0.91406 2.2109v44.125c0 0.82812-0.32812 1.625-0.91406 2.2109-0.58594 0.58594-1.3828 0.91406-2.2109 0.91406zm25.656-13.734c0 0.41406-0.16406 0.8125-0.45703 1.1055-0.29297 0.29297-0.69141 0.45703-1.1055 0.45703h-17.844v-35.078c0-1.6562-0.66016-3.2461-1.832-4.418s-2.7617-1.832-4.418-1.832h-12.422v-7.4375c0-0.86328 0.69922-1.5625 1.5625-1.5625h34.891c0.41406 0 0.8125 0.16406 1.1055 0.45703s0.45703 0.69141 0.45703 1.1055zm20.625-14.766c-0.058594 1.7422-1.4883 3.125-3.2344 3.125h-14.266v-35.562c0-2.5898-2.0977-4.6875-4.6875-4.6875h-15.906v-6.9062c0-1.7773 1.4414-3.2188 3.2188-3.2188h31.641c1.7812 0 3.2266 1.4375 3.2344 3.2188z"/>
<text x="0.0" y="117.5" font-size="5.0" font-weight="bold" font-family="Arbeit Regular, Helvetica, Arial-Unicode, Arial, Sans-serif" fill="#000000">Created by Abdul Matic</text><text x="0.0" y="122.5" font-size="5.0" font-weight="bold" font-family="Arbeit Regular, Helvetica, Arial-Unicode, Arial, Sans-serif" fill="#000000">from Noun Project</text></svg>