<svg xmlns="http://www.w3.org/2000/svg" version="1.1" viewBox="-5.0 -10.0 110.0 135.0">
 <path d="m6.25 45.219h49.812c1.7266 0 3.125-1.3984 3.125-3.125s-1.3984-3.125-3.125-3.125h-49.812c-1.7266 0-3.125 1.3984-3.125 3.125s1.3984 3.125 3.125 3.125z"/>
 <path d="m6.25 29.43h55.547c1.7266 0 3.125-1.3984 3.125-3.125 0-1.7266-1.3984-3.125-3.125-3.125h-55.547c-1.7266 0-3.125 1.3984-3.125 3.125 0 1.7227 1.3984 3.125 3.125 3.125z"/>
 <path d="m42.344 54.781h-36.094c-1.7266 0-3.125 1.3984-3.125 3.125s1.3984 3.125 3.125 3.125h36.094c1.7266 0 3.125-1.3984 3.125-3.125s-1.3984-3.125-3.125-3.125z"/>
 <path d="m40.5 70.562h-34.25c-1.7266 0-3.125 1.3984-3.125 3.125s1.3984 3.125 3.125 3.125h34.25c1.7266 0 3.125-1.3984 3.125-3.125s-1.3984-3.125-3.125-3.125z"/>
 <path d="m93.637 31.195c-4.3086-4.3125-11.328-4.3125-15.637 0l-26.785 26.781c-0.87891 0.88281-1.4492 1.9922-1.6562 3.2148l-1.4688 8.6836c-0.32031 1.8945 0.30469 3.8398 1.6641 5.1953 1.125 1.125 2.6484 1.7461 4.2148 1.7461 0.32422 0 0.66016-0.027344 0.98438-0.082031l8.6797-1.4648c1.2266-0.20703 2.3359-0.78125 3.2188-1.6641l26.781-26.781c4.3164-4.3047 4.3164-11.316 0.003907-15.629zm-31.039 37.914-8.2734 1.3984 1.3203-8.1172 19.121-19.121 6.8086 6.8086zm26.621-26.695-3.2344 3.2422-6.8047-6.8047 3.2383-3.2383c0.9375-0.9375 2.168-1.4062 3.3984-1.4062 1.2305 0 2.4609 0.46875 3.3984 1.4062 1.875 1.875 1.875 4.9258 0.003906 6.8008z"/>
<text x="0.0" y="117.5" font-size="5.0" font-weight="bold" font-family="Arbeit Regular, Helvetica, Arial-Unicode, Arial, Sans-serif" fill="#000000">Created by Rikas Dzihab</text><text x="0.0" y="122.5" font-size="5.0" font-weight="bold" font-family="Arbeit Regular, Helvetica, Arial-Unicode, Arial, Sans-serif" fill="#000000">from Noun Project</text></svg>